<svg xmlns="http://www.w3.org/2000/svg" viewBox="0 0 50.14 47.36"><defs><style>.cls-1{fill:#ffc000;}</style></defs><title>Asset 2</title><g id="Layer_2" data-name="Layer 2"><g id="Layer_1-2" data-name="Layer 1"><path class="cls-1" d="M50.06,18a1.51,1.51,0,0,0-1.4-1L32,16.6,26.49,1a1.5,1.5,0,0,0-2.84,0L18.17,16.6l-16.7.34a1.52,1.52,0,0,0-1.4,1A1.53,1.53,0,0,0,.6,19.65l13.3,10L9.07,45.42a1.5,1.5,0,0,0,.54,1.65,1.52,1.52,0,0,0,1.75,0l13.71-9.44L38.78,47.1a1.49,1.49,0,0,0,.85.26,1.44,1.44,0,0,0,.89-.29,1.49,1.49,0,0,0,.55-1.65l-4.83-15.8,13.29-10A1.5,1.5,0,0,0,50.06,18Z"/></g></g></svg>